<?xml version="1.0" standalone="no"?>
<!DOCTYPE svg PUBLIC "-//W3C//DTD SVG 20010904//EN"
 "http://www.w3.org/TR/2001/REC-SVG-20010904/DTD/svg10.dtd">
<svg version="1.0" xmlns="http://www.w3.org/2000/svg"
 width="261.000000pt" height="179.000000pt" viewBox="0 0 261.000000 179.000000"
 preserveAspectRatio="xMidYMid meet">

<g transform="translate(0.000000,179.000000) scale(0.100000,-0.100000)"
fill="#000000" stroke="none">
<path d="M1497 1444 c-119 -29 -251 -119 -307 -210 l-21 -34 57 -104 c31 -58
60 -103 64 -101 4 3 10 21 13 42 4 20 23 61 43 90 117 170 354 190 500 42 l48
-49 98 0 c66 0 98 4 98 11 0 26 -68 128 -119 179 -124 123 -306 175 -474 134z"/>
<path d="M760 1183 c-57 -120 -161 -338 -231 -485 l-127 -268 314 0 314 0 0
95 0 95 -155 0 c-85 0 -155 2 -155 4 0 3 30 77 109 270 20 49 40 89 45 90 4 0
74 -119 155 -266 81 -147 151 -272 157 -278 7 -7 54 -10 122 -8 l110 3 -116
206 c-64 113 -187 330 -272 482 -85 152 -157 277 -160 277 -3 0 -52 -98 -110
-217z"/>
<path d="M1590 855 l0 -85 145 0 c80 0 145 -4 145 -9 0 -4 -22 -28 -48 -53
-83 -78 -216 -109 -314 -74 -21 8 -38 11 -38 9 0 -3 25 -52 56 -109 55 -103
56 -104 92 -104 102 1 242 57 327 132 91 80 165 230 165 334 l0 44 -265 0
-265 0 0 -85z"/>
</g>
</svg>
